<?xml version="1.0" standalone="no"?>
<!DOCTYPE svg PUBLIC "-//W3C//DTD SVG 20010904//EN"
 "http://www.w3.org/TR/2001/REC-SVG-20010904/DTD/svg10.dtd">
<svg version="1.0" xmlns="http://www.w3.org/2000/svg"
 width="700.000000pt" height="700.000000pt" viewBox="0 0 700.000000 700.000000"
 preserveAspectRatio="xMidYMid meet">
<metadata>
Created by potrace 1.14, written by Peter Selinger 2001-2017
</metadata>
<g transform="translate(0.000000,700.000000) scale(0.100000,-0.100000)"
fill="#000000" stroke="none">
<path d="M2127 4984 c-1 -1 -49 -4 -107 -8 -58 -3 -114 -8 -125 -10 -11 -2
-47 -7 -79 -11 -88 -10 -271 -58 -358 -94 -306 -128 -499 -369 -584 -731 -22
-94 -34 -159 -40 -210 -3 -25 -7 -55 -10 -68 -13 -64 -18 -317 -18 -993 -1
-824 -4 -780 63 -822 34 -21 47 -22 259 -22 203 -1 227 1 263 19 75 38 71 -2
75 845 1 416 5 770 8 786 3 17 8 55 12 85 10 91 52 240 89 318 70 148 218 258
385 286 19 3 46 8 60 12 53 13 474 13 561 0 390 -60 538 -267 574 -805 3 -31
4 -362 5 -737 0 -374 4 -694 9 -712 11 -37 35 -64 76 -84 24 -12 74 -15 255
-13 250 2 266 5 303 64 l22 36 1 685 c2 879 6 939 71 1150 81 261 220 372 528
420 61 9 475 7 530 -3 17 -3 46 -8 65 -12 161 -27 295 -115 375 -245 34 -56
79 -176 90 -240 3 -19 8 -42 10 -50 3 -8 7 -35 11 -60 3 -25 8 -58 11 -75 2
-16 7 -376 10 -800 5 -848 1 -800 66 -849 27 -20 41 -21 257 -22 258 0 280 4
320 63 l25 37 -1 745 c0 410 -3 793 -7 851 -28 441 -139 751 -338 949 -220
219 -572 324 -1094 325 -339 0 -590 -45 -802 -144 -150 -70 -219 -126 -400
-322 -47 -51 -79 -41 -148 47 -110 137 -243 235 -416 304 -80 32 -243 76 -319
85 -25 3 -55 8 -67 10 -61 12 -465 29 -476 20z"/>
</g>
</svg>
