<svg width="22" height="23" viewBox="0 0 22 23" fill="none" xmlns="http://www.w3.org/2000/svg">
<path d="M20.2 20.4H1C0.4 20.4 0 20.8 0 21.4C0 22 0.4 22.4 1 22.4H20.2C20.8 22.4 21.2 22 21.2 21.4C21.2 20.8 20.7 20.4 20.2 20.4Z" fill="black"/>
<path d="M1 4.5H3.4C3.8 5.9 5.1 7 6.7 7C8.3 7 9.6 5.9 10 4.5H20.1C20.7 4.5 21.1 4.1 21.1 3.5C21.1 2.9 20.7 2.5 20.1 2.5H10.1C9.6 1.1 8.3 0 6.7 0C5.1 0 3.8 1.1 3.4 2.5H1C0.4 2.5 0 2.9 0 3.5C0 4.1 0.4 4.5 1 4.5ZM6.7 2C7.5 2 8.2 2.7 8.2 3.5C8.2 4.3 7.5 5 6.7 5C5.9 5 5.2 4.3 5.2 3.5C5.2 2.7 5.9 2 6.7 2Z" fill="black"/>
<path d="M20.2 11.4H17.8C17.4 10 16 8.9 14.5 8.9C13 8.9 11.6 10 11.2 11.4H1C0.4 11.4 0 11.8 0 12.4C0 13 0.4 13.4 1 13.4H11.1C11.5 14.8 12.9 15.9 14.4 15.9C15.9 15.9 17.3 14.8 17.7 13.4H20.1C20.7 13.4 21.1 13 21.1 12.4C21.1 11.8 20.7 11.4 20.2 11.4ZM14.5 13.9C13.7 13.9 13 13.2 13 12.4C13 11.6 13.7 10.9 14.5 10.9C15.3 10.9 16 11.6 16 12.4C16 13.2 15.3 13.9 14.5 13.9Z" fill="black"/>
</svg>
