<svg width="24" height="21" viewBox="0 0 24 21" fill="none" xmlns="http://www.w3.org/2000/svg">
<path d="M17.8 0C15.4 0 13.4 1.1 11.9 3.1C10.3 1.1 8.3 0 5.9 0C2.4 0 0 2.8 0 6.9C0 7.6 0.1 8.4 0.4 9.1C2.2 15.1 8.2 19.2 11.6 20.4C11.7 20.4 11.8 20.5 11.9 20.5C12 20.5 12.1 20.5 12.2 20.4C15.6 19.2 21.6 15.1 23.4 9.1C23.4 9.1 23.4 9.1 23.4 9C23.6 8.3 23.8 7.5 23.8 6.8C23.7 2.8 21.3 0 17.8 0ZM21.5 8.4V8.5C19.9 13.8 14.6 17.4 11.9 18.4C8.7 17.1 3.8 13.4 2.3 8.5V8.4C2.1 8 2 7.5 2 6.9C2 4.5 3 2 5.9 2C8 2 9.7 3.1 11 5.4C11.2 5.7 11.5 5.9 11.9 5.9C12.3 5.9 12.6 5.7 12.8 5.4C14 3.1 15.7 2 17.8 2C20.7 2 21.7 4.5 21.7 6.9C21.7 7.4 21.6 8 21.5 8.4Z" fill="black"/>
</svg>
