<svg width="16" height="21" viewBox="0 0 16 21" fill="none" xmlns="http://www.w3.org/2000/svg">
<path d="M7.7 20.6C7.5 20.6 7.2 20.5 7 20.3C6.7 20 0 13.8 0 7.7C0 3.5 3.5 0 7.7 0C11.9 0 15.4 3.5 15.4 7.7C15.4 13.8 8.7 20.1 8.4 20.3C8.2 20.5 8 20.6 7.7 20.6ZM7.7 2C4.6 2 2 4.6 2 7.7C2 11.9 6.1 16.5 7.7 18.2C9.3 16.5 13.4 11.9 13.4 7.7C13.4 4.6 10.9 2 7.7 2Z" fill="black"/>
<path d="M7.7 11.3C5.7 11.3 4.1 9.7 4.1 7.7C4.1 5.7 5.7 4.1 7.7 4.1C9.7 4.1 11.3 5.7 11.3 7.7C11.3 9.7 9.7 11.3 7.7 11.3ZM7.7 6.1C6.8 6.1 6.1 6.8 6.1 7.7C6.1 8.6 6.8 9.3 7.7 9.3C8.6 9.3 9.3 8.6 9.3 7.7C9.3 6.8 8.6 6.1 7.7 6.1Z" fill="black"/>
</svg>
