<svg width="155" height="31" viewBox="0 0 155 31" fill="none" xmlns="http://www.w3.org/2000/svg">
<path d="M126.5 26.8L118.8 19C118.6 18.8 118.6 18.3 118.9 18L125.2 12.3C125.5 12 125.6 11.4 125.2 11L123.4 9.1C123 8.7 122.4 8.7 121.9 9.1L113.1 17.9C112.7 18.3 112.7 18.9 113.1 19.3L123 29.9C123.3 30.3 123.9 30.3 124.4 30L126.5 28.2C126.9 27.8 126.9 27.2 126.5 26.8Z" fill="black"/>
<path d="M109.1 0H106.3C105.7 0 105.3 0.5 105.3 1V29C105.3 29.5 105.7 30 106.3 30H109.1C109.7 30 110.1 29.5 110.1 29V1C110.1 0.5 109.7 0 109.1 0Z" fill="black"/>
<path d="M143.2 26.3C138.9 26.3 135.9 23.8 135.9 19.6C135.9 15.4 138.4 12.9 143.2 12.9C147.6 12.9 150.4 15.4 150.4 19.6C150.4 23.7 147.9 26.3 143.2 26.3ZM143.2 8.8C135.8 8.8 131.3 12.9 131.3 19.6C131.3 26.3 136 30.4 143.2 30.4C150.8 30.4 155 26.3 155 19.6C155 12.8 150.3 8.8 143.2 8.8Z" fill="black"/>
<path d="M98.5 26.8L90.7 19C90.5 18.8 90.5 18.3 90.8 18L97.1 12.3C97.4 12 97.5 11.4 97.1 11L95.3 9.1C94.9 8.7 94.3 8.7 93.8 9.1L85 17.9C84.6 18.3 84.6 18.9 85 19.3L95.1 29.9C95.4 30.3 96 30.3 96.5 30L98.6 28.2C98.9 27.8 98.9 27.2 98.5 26.8Z" fill="black"/>
<path d="M81.1 0H78.3C77.7 0 77.3 0.5 77.3 1V29C77.3 29.5 77.7 30 78.3 30H81.1C81.7 30 82.1 29.5 82.1 29V1C82.1 0.5 81.7 0 81.1 0Z" fill="black"/>
<path d="M28.1 8.8C24.5 8.8 21.5 9.7 19.9 12C19.5 12.6 19.2 12.5 18.7 11.8C17.1 9.6 14.2 8.8 10.5 8.8C3 8.8 0 11.4 0 19.8V29C0 29.5 0.4 30 1 30H3.8C4.3 30 4.8 29.5 4.8 29V20.3C4.8 13.9 6.6 13 10.9 13C15 13 17 13.9 17 20.3V29C17 29.5 17.5 30 18 30H20.8C21.3 30 21.8 29.5 21.8 29V20.3C21.8 13.9 23.8 13 27.9 13C32.1 13 34 13.9 34 20.3V29C34 29.5 34.5 30 34.9 30H37.7C38.3 30 38.7 29.5 38.7 29V19.8C38.6 11.4 35.6 8.8 28.1 8.8Z" fill="black"/>
<path d="M58 26.3C53.7 26.3 50.7 23.8 50.7 19.6C50.7 15.4 53.2 12.9 58 12.9C62.4 12.9 65.2 15.4 65.2 19.6C65.2 23.7 62.7 26.3 58 26.3ZM58 8.8C50.6 8.8 46.1 12.9 46.1 19.6C46.1 26.3 50.8 30.4 58 30.4C65.6 30.4 69.8 26.3 69.8 19.6C69.9 12.8 65.2 8.8 58 8.8Z" fill="black"/>
</svg>
