<svg width="22" height="20" viewBox="0 0 22 20" fill="none" xmlns="http://www.w3.org/2000/svg">
<path d="M20.2 2H1C0.4 2 0 1.6 0 1C0 0.4 0.4 0 1 0H20.2C20.8 0 21.2 0.4 21.2 1C21.2 1.6 20.7 2 20.2 2Z" fill="black"/>
<path d="M20.2 10.9H1C0.4 10.9 0 10.5 0 9.9C0 9.3 0.4 8.9 1 8.9H20.2C20.8 8.9 21.2 9.3 21.2 9.9C21.2 10.5 20.7 10.9 20.2 10.9Z" fill="black"/>
<path d="M20.2 19.9H1C0.4 19.9 0 19.5 0 18.9C0 18.3 0.4 17.9 1 17.9H20.2C20.8 17.9 21.2 18.3 21.2 18.9C21.2 19.5 20.7 19.9 20.2 19.9Z" fill="black"/>
</svg>
