<svg width="29" height="21" viewBox="0 0 29 21" fill="none" xmlns="http://www.w3.org/2000/svg">
<path d="M25.4 10.55L28.5 7.45C28.9 7.05 28.9 6.45 28.5 6.05C28.1 5.65 27.5 5.65 27.1 6.05L24 9.15L20.9 6.05C20.5 5.65 19.9 5.65 19.5 6.05C19.1 6.45 19.1 7.05 19.5 7.45L22.6 10.55L19.5 13.65C19.1 14.05 19.1 14.65 19.5 15.05C19.7 15.25 20 15.35 20.2 15.35C20.4 15.35 20.7 15.25 20.9 15.05L24 11.95L27.1 15.05C27.3 15.25 27.6 15.35 27.8 15.35C28 15.35 28.3 15.25 28.5 15.05C28.9 14.65 28.9 14.05 28.5 13.65L25.4 10.55Z" fill="black"/>
<path d="M16.4 0.15C16.1 -0.05 15.7 -0.05 15.4 0.15L8.7 4.35H1C0.4 4.35 0 4.75 0 5.35V15.75C0 16.35 0.4 16.75 1 16.75H8.7L15.5 20.85C15.7 20.95 15.8 20.95 16 20.95C16.2 20.95 16.3 20.95 16.5 20.85C16.8 20.65 17 20.35 17 19.95V1.05C16.9 0.65 16.7 0.35 16.4 0.15ZM14.9 18.25L9.4 14.95C9.2 14.85 9.1 14.85 8.9 14.85H2V6.35H8.9C9.1 6.35 9.3 6.25 9.4 6.25L14.9 2.95V18.25Z" fill="black"/>
</svg>
