<svg width="22" height="22" viewBox="0 0 22 22" fill="none" xmlns="http://www.w3.org/2000/svg">
<path d="M10.54 9.5C13.14 9.5 15.34 7.4 15.34 4.7C15.34 2 13.24 0 10.54 0C7.84 0 5.84 2.1 5.84 4.8C5.84 7.5 7.94 9.5 10.54 9.5ZM10.54 2C12.04 2 13.34 3.2 13.34 4.8C13.34 6.4 12.14 7.6 10.54 7.6C8.94 7.6 7.84 6.3 7.84 4.8C7.84 3.3 9.04 2 10.54 2Z" fill="black"/>
<path d="M10.54 11.3C5.94 11.3 1.84 13.9 0.24 18C-0.16 18.9 -0.06 19.9 0.54 20.7C1.04 21.5 1.94 22 2.94 22H18.34C19.34 22 20.14 21.5 20.74 20.7C21.24 19.9 21.34 18.9 21.04 18C19.24 13.9 15.24 11.3 10.54 11.3ZM19.04 19.5C18.84 19.7 18.64 19.9 18.34 19.9H2.94C2.64 19.9 2.34 19.8 2.24 19.5C2.14 19.4 2.04 19.1 2.14 18.7C3.54 15.4 6.84 13.3 10.64 13.3C14.44 13.3 17.74 15.4 19.14 18.7C19.24 19.1 19.04 19.4 19.04 19.5Z" fill="black"/>
</svg>
