<svg width="22" height="22" viewBox="0 0 22 22" fill="none" xmlns="http://www.w3.org/2000/svg">
<path d="M21.675 20.2L14.975 13.5C16.175 12 16.775 10.2 16.775 8.3C16.775 6.1 15.875 4 14.375 2.4C12.775 0.9 10.675 0 8.475 0C6.275 0 4.075 0.9 2.475 2.4C-0.825 5.7 -0.825 11 2.475 14.2C4.075 15.8 6.275 16.6 8.375 16.6C10.175 16.6 11.975 16 13.575 14.8L20.275 21.5C20.475 21.7 20.775 21.8 20.975 21.8C21.175 21.8 21.475 21.7 21.675 21.5C22.075 21.2 22.075 20.6 21.675 20.2ZM3.975 12.9C1.475 10.4 1.475 6.4 3.975 3.9C5.175 2.7 6.775 2 8.475 2C10.175 2 11.775 2.7 12.975 3.9C14.175 5.1 14.875 6.7 14.875 8.4C14.875 10.1 14.175 11.7 12.975 12.9C10.475 15.3 6.375 15.3 3.975 12.9Z" fill="black"/>
</svg>
